<svg id="Layer_1" data-name="Layer 1" xmlns="http://www.w3.org/2000/svg" viewBox="0 0 969.26 715.99"><defs><style>.cls-1{fill:#dddde2;}</style></defs><path class="cls-1" d="M500,184.24,90.69,407.94A58.56,58.56,0,0,1,12.4,386.68h0L500,119.52,981.65,387.88h0a56.77,56.77,0,0,1-76.16,20.51Z" transform="translate(-12.4 -119.52)"/><path class="cls-1" d="M341.87,364.78v-55H86.12V697.63H341.87V479.14H143.75V364.78ZM289.4,532.37V642.64H141.9V532.37Z" transform="translate(-12.4 -119.52)"/><path class="cls-1" d="M634.5,350.13c0,22.45-18.49,32.13-36.24,32.13H587.72V365.45H494.57c-39.8,0-62.08,27.37-62.31,63.09v54.2l-59.94,38.54V406.45a96.77,96.77,0,0,1,96.78-96.77H634.5Z" transform="translate(-12.4 -119.52)"/><path class="cls-1" d="M634.5,652.19v45.44H473.2c-55.48,0-100.88-45.4-100.88-100.88V541.88l59.94-39v73.28a65.21,65.21,0,0,0,65.21,65.21h90.25v-17.9h18A28.76,28.76,0,0,1,634.5,652.19Z" transform="translate(-12.4 -119.52)"/><polygon class="cls-1" points="887.6 410.96 708.08 410.96 708.08 519.23 902.03 519.23 902.03 578.1 652.56 578.1 652.56 190.15 902.03 190.15 902.03 247.81 708.08 247.81 708.08 352.98 887.6 352.98 887.6 410.96"/><path class="cls-1" d="M148.7,733.71h21.06v47.68l38.37-47.68h22.28L197.62,770.4,236,833.68H213.19L184.73,784l-15,16.83v32.81H148.7Z" transform="translate(-12.4 -119.52)"/><path class="cls-1" d="M330.2,783.66q0,25.64-11.65,38.74t-33.82,13.11q-22.28,0-34.1-13.07T238.8,783.66q0-25.5,11.74-38.64t34.1-13.15q22.08,0,33.82,13.08T330.2,783.66Zm-22.08,0q0-17.81-5.27-28t-18.4-10.23q-13.14,0-18.35,10.27t-5.22,28q0,17.46,5.12,27.86T284.73,822q12.76,0,18.08-10.08T308.12,783.69Z" transform="translate(-12.4 -119.52)"/><path class="cls-1" d="M349.86,733.71h31.23l25.37,72.07,26-72.07h29.92v100H442.66V748.35l-30.23,85.33h-15.3l-29.66-85.4v85.4H349.86Z" transform="translate(-12.4 -119.52)"/><path class="cls-1" d="M486.82,833.68v-100H563.6v100H542.54V747H507.88v86.72Z" transform="translate(-12.4 -119.52)"/><path class="cls-1" d="M611.88,733.71h23.6l34.14,100H648.31l-8-25H603l-7.91,25H575.06Zm24.3,61.88-14.59-45.77-14.44,45.77Z" transform="translate(-12.4 -119.52)"/><path class="cls-1" d="M682.3,733.71h21.05v41.45h37.46V733.71h21.06v100H740.81V789.15H703.35v44.53H682.3Z" transform="translate(-12.4 -119.52)"/><path class="cls-1" d="M847.34,741.49l.06-7.78h21.06v100H847.4V781.83c0-.49,0-4.07.48-15.05-2.66,5.71-6.2,9.77-11,16.51l-29.59,43.05v7.34H786.28v-100h21.05L807,801Z" transform="translate(-12.4 -119.52)"/><path class="cls-1" d="M138.52,424.78H268.27a1.4,1.4,0,0,1,1.4,1.4v9.51a5.74,5.74,0,0,1-5.74,5.74H142.86a5.74,5.74,0,0,1-5.74-5.74v-9.51a1.4,1.4,0,0,1,1.4-1.4Z"/><rect class="cls-1" x="138.82" y="454.45" width="129" height="10.51" rx="0.59"/><rect class="cls-1" x="138.82" y="500.29" width="129" height="10.51" rx="0.59"/><rect class="cls-1" x="138.82" y="477.37" width="129" height="10.51" rx="0.59"/></svg>