<?xml version="1.0" encoding="utf-8"?>
<!-- Generator: Adobe Illustrator 24.3.0, SVG Export Plug-In . SVG Version: 6.00 Build 0)  -->
<svg version="1.1" id="Layer_1" xmlns="http://www.w3.org/2000/svg" xmlns:xlink="http://www.w3.org/1999/xlink" x="0px" y="0px"
	 viewBox="0 0 50 50" style="enable-background:new 0 0 50 50;" xml:space="preserve">
<style type="text/css">
	.st0{fill:#FFFFFF;}
</style>
<g>
	<path d="M45,10.1c0,1.5,0,3,0,4.4c-0.3,0.7-0.8,1-1.6,0.9c-0.7,0-1.3,0-2,0c0,7.6,0,15.1,0,22.6c0.7,0,1.3,0,2,0
		c0.7,0,1.3,0.2,1.6,0.9c0,0.2,0,0.4,0,0.5c-0.3,0.7-0.8,0.9-1.5,0.9c-12.3,0-24.6,0-36.9,0c-0.1,0-0.2,0-0.3,0
		c-0.7,0-1.2-0.5-1.2-1.2c0-0.6,0.5-1.2,1.2-1.2c0.6,0,1.2,0,1.8,0c0.2,0,0.4,0,0.6,0c0-7.6,0-15.1,0-22.6c-0.8,0-1.5,0-2.2,0
		c-0.9,0-1.3-0.5-1.3-1.3c0-1.1,0-2.3,0-3.4c0-1.1,0.4-1.5,1.5-1.5c12.3,0,24.6,0,36.9,0C44.2,9.1,44.7,9.4,45,10.1z M11.1,15.4
		c0,7.6,0,15.1,0,22.6c9.3,0,18.6,0,27.9,0c0-7.5,0-15.1,0-22.6C29.7,15.4,20.4,15.4,11.1,15.4z"/>
	<path class="st0" d="M45,10.1c-0.3-0.7-0.8-0.9-1.5-0.9c-12.3,0-24.6,0-36.9,0c-1.1,0-1.5,0.4-1.5,1.5c0,1.1,0,2.3,0,3.4
		c0,0.8,0.5,1.3,1.3,1.3c0.7,0,1.5,0,2.2,0c0,7.6,0,15.1,0,22.6c-0.2,0-0.4,0-0.6,0c-0.6,0-1.2,0-1.8,0c-0.7,0-1.2,0.6-1.2,1.2
		c0,0.7,0.5,1.1,1.2,1.2c0.1,0,0.2,0,0.3,0c12.3,0,24.6,0,36.9,0c0.7,0,1.3-0.2,1.5-0.9c0,1.7,0,3.5,0,5.2c-13.3,0-26.7,0-40,0
		c0-13.3,0-26.7,0-40c13.3,0,26.7,0,40,0C45,6.5,45,8.3,45,10.1z"/>
	<path class="st0" d="M45,39c-0.3-0.7-0.8-1-1.6-0.9c-0.7,0-1.3,0-2,0c0-7.6,0-15.1,0-22.6c0.7,0,1.3,0,2,0c0.7,0,1.3-0.2,1.6-0.9
		C45,22.7,45,30.8,45,39z"/>
	<path class="st0" d="M11.1,15.4c9.3,0,18.6,0,27.9,0c0,7.5,0,15.1,0,22.6c-9.3,0-18.6,0-27.9,0C11.1,30.5,11.1,23,11.1,15.4z
		 M25,25.6c3.4,0,6.7,0,10.1,0c0.2,0,0.3,0,0.5,0c0.6-0.1,1-0.5,1-1.1c0-0.6-0.4-1.1-1-1.2c-0.2,0-0.4,0-0.5,0c-6.7,0-13.4,0-20.1,0
		c-0.2,0-0.4,0-0.6,0c-0.6,0.1-1,0.6-0.9,1.3c0,0.7,0.6,1.1,1.3,1.1C18.2,25.6,21.6,25.6,25,25.6z M25.1,27.8c-3.4,0-6.7,0-10.1,0
		c-0.2,0-0.3,0-0.5,0c-0.6,0.1-1,0.5-1,1.1c0,0.6,0.3,1.1,0.9,1.2c0.2,0,0.4,0,0.6,0c6.7,0,13.4,0,20,0c0.2,0,0.4,0,0.6,0
		c0.6-0.1,1-0.6,1-1.3c0-0.7-0.6-1.1-1.3-1.1C31.9,27.8,28.5,27.8,25.1,27.8z M25,21.2c3.2,0,6.5,0,9.7,0c0.3,0,0.5,0,0.8,0
		c0.6,0,1.1-0.5,1.1-1.2c0-0.6-0.4-1.1-1.1-1.2c-0.2,0-0.3,0-0.5,0c-6.7,0-13.3,0-20,0c-0.2,0-0.4,0-0.5,0c-0.5,0.1-0.9,0.5-1,1
		c-0.1,0.8,0.5,1.3,1.3,1.3C18.2,21.2,21.6,21.2,25,21.2z M25.1,34.6c3.3,0,6.6,0,10,0c0.2,0,0.3,0,0.5,0c0.6-0.1,1-0.5,1-1
		c0.1-0.6-0.3-1.1-0.8-1.3c-0.2-0.1-0.5-0.1-0.7-0.1c-6.7,0-13.4,0-20.1,0c-0.2,0-0.3,0-0.5,0c-0.5,0.1-1,0.5-1,1
		c-0.1,0.8,0.5,1.3,1.3,1.3C18.2,34.6,21.6,34.6,25.1,34.6z"/>
	<path d="M25,25.6c-3.4,0-6.8,0-10.2,0c-0.8,0-1.3-0.4-1.3-1.1c0-0.6,0.3-1.1,0.9-1.3c0.2,0,0.4,0,0.6,0c6.7,0,13.4,0,20.1,0
		c0.2,0,0.4,0,0.5,0c0.6,0.1,1,0.6,1,1.2c0,0.6-0.5,1-1,1.1c-0.2,0-0.3,0-0.5,0C31.7,25.6,28.4,25.6,25,25.6z"/>
	<path d="M25.1,27.8c3.4,0,6.8,0,10.2,0c0.8,0,1.3,0.4,1.3,1.1c0,0.6-0.3,1.1-1,1.3c-0.2,0-0.4,0-0.6,0c-6.7,0-13.4,0-20,0
		c-0.2,0-0.4,0-0.6,0c-0.6-0.1-1-0.6-0.9-1.2c0-0.6,0.5-1.1,1-1.1c0.2,0,0.3,0,0.5,0C18.3,27.8,21.7,27.8,25.1,27.8z"/>
	<path d="M25,21.2c-3.4,0-6.8,0-10.2,0c-0.9,0-1.4-0.5-1.3-1.3c0.1-0.5,0.5-1,1-1c0.2,0,0.4,0,0.5,0c6.7,0,13.3,0,20,0
		c0.2,0,0.3,0,0.5,0c0.6,0.1,1.1,0.6,1.1,1.2c0,0.6-0.5,1.1-1.1,1.2c-0.3,0-0.5,0-0.8,0C31.5,21.2,28.3,21.2,25,21.2z"/>
	<path d="M25.1,34.6c-3.4,0-6.8,0-10.2,0c-0.9,0-1.4-0.5-1.3-1.3c0.1-0.5,0.5-1,1-1c0.2,0,0.3,0,0.5,0c6.7,0,13.4,0,20.1,0
		c0.2,0,0.5,0,0.7,0.1c0.5,0.2,0.9,0.7,0.8,1.3c-0.1,0.5-0.5,1-1,1c-0.2,0-0.3,0-0.5,0C31.7,34.6,28.4,34.6,25.1,34.6z"/>
</g>
</svg>
